<svg width="19" height="16" viewBox="0 0 19 16" fill="none" xmlns="http://www.w3.org/2000/svg">
<path d="M9.70961 0.761216C9.41113 0.59841 9.05038 0.59841 8.75191 0.761216L1.67424 4.62176C0.979233 5.00086 0.97941 5.99887 1.67454 6.37772L2.87597 7.0325C3.1974 7.20768 3.39742 7.54449 3.39742 7.91056V11.7232C3.39742 12.0891 3.59723 12.4257 3.9184 12.601L8.75173 15.2386C9.0503 15.4015 9.41122 15.4015 9.70979 15.2386L14.5431 12.601C14.8643 12.4257 15.0641 12.0891 15.0641 11.7232V7.81158C15.0641 7.50652 15.2308 7.22585 15.4986 7.07986C16.0539 6.77722 16.7308 7.17916 16.7308 7.81158V11.3334C16.7308 11.7936 17.1039 12.1667 17.5641 12.1667C18.0243 12.1667 18.3974 11.7936 18.3974 11.3334V6.09366C18.3974 5.72771 18.1975 5.391 17.8763 5.21576L9.70961 0.761216ZM13.3046 4.62213C13.9995 5.00114 13.9995 5.9989 13.3046 6.37792L9.70961 8.33883C9.41113 8.50164 9.05038 8.50164 8.75191 8.33883L5.1569 6.37792C4.46204 5.9989 4.46204 5.00114 5.1569 4.62213L8.75191 2.66122C9.05038 2.49841 9.41113 2.49841 9.70961 2.66122L13.3046 4.62213ZM13.3974 10.739C13.3974 11.1053 13.1971 11.4423 12.8753 11.6174L9.70862 13.3401C9.41066 13.5022 9.05085 13.5022 8.75289 13.3401L5.58622 11.6174C5.26441 11.4423 5.06409 11.1053 5.06409 10.739V9.91037C5.06409 9.15113 5.87693 8.66883 6.54331 9.03268L8.75154 10.2384C9.05021 10.4014 9.41131 10.4014 9.70998 10.2384L11.9182 9.03268C12.5846 8.66883 13.3974 9.15113 13.3974 9.91037V10.739Z" fill="url(#paint0_linear_9_20)"/>
<path fill-rule="evenodd" clip-rule="evenodd" d="M1.53058 4.3584L8.60825 0.497847C8.99627 0.2862 9.46524 0.286199 9.85326 0.497847L18.0199 4.95239C18.4376 5.1802 18.6974 5.61793 18.6974 6.09366V11.3334C18.6974 11.9593 18.19 12.4667 17.5641 12.4667C16.9382 12.4667 16.4308 11.9593 16.4308 11.3334V7.81158C16.4308 7.40683 15.9976 7.14959 15.6422 7.34328C15.4708 7.43671 15.3641 7.61634 15.3641 7.81158V11.7232C15.3641 12.1988 15.1043 12.6365 14.6868 12.8643L9.85349 15.502C9.46535 15.7138 8.99616 15.7138 8.60802 15.502L3.77469 12.8643C3.35718 12.6365 3.09742 12.1988 3.09742 11.7232V7.91056C3.09742 7.65431 2.95741 7.41854 2.73241 7.29592L1.53098 6.64114C0.627307 6.14864 0.627075 4.85122 1.53058 4.3584ZM9.56595 8.07546L13.161 6.11455C13.6474 5.84924 13.6474 5.15081 13.161 4.8855L9.56595 2.92459C9.35702 2.81062 9.1045 2.81062 8.89556 2.92458L5.30056 4.8855C4.81415 5.15081 4.81415 5.84924 5.30056 6.11455L8.89556 8.07546C9.1045 8.18943 9.35702 8.18943 9.56595 8.07546ZM9.56526 13.0765L12.7319 11.3539C12.9572 11.2313 13.0974 10.9954 13.0974 10.739V9.91037C13.0974 9.3789 12.5284 9.0413 12.062 9.29599L9.85375 10.5017C9.46547 10.7137 8.99604 10.7137 8.60777 10.5017L6.39955 9.29599C5.93308 9.0413 5.36409 9.3789 5.36409 9.91037V10.739C5.36409 10.9954 5.50432 11.2313 5.72958 11.3539L8.89625 13.0765C9.10482 13.19 9.35669 13.19 9.56526 13.0765ZM8.75191 0.761216C9.05038 0.59841 9.41113 0.59841 9.70961 0.761216L17.8763 5.21576C18.1975 5.391 18.3974 5.72771 18.3974 6.09366V11.3334C18.3974 11.7936 18.0243 12.1667 17.5641 12.1667C17.1039 12.1667 16.7308 11.7936 16.7308 11.3334V7.81158C16.7308 7.17916 16.0539 6.77722 15.4986 7.07986C15.2308 7.22585 15.0641 7.50652 15.0641 7.81158V11.7232C15.0641 12.0891 14.8643 12.4257 14.5431 12.601L9.70979 15.2386C9.41122 15.4015 9.0503 15.4015 8.75173 15.2386L3.9184 12.601C3.59723 12.4257 3.39742 12.0891 3.39742 11.7232V7.91056C3.39742 7.54449 3.1974 7.20768 2.87597 7.0325L1.67454 6.37772C0.97941 5.99887 0.979233 5.00086 1.67424 4.62176L8.75191 0.761216ZM13.3046 6.37792C13.9995 5.9989 13.9995 5.00114 13.3046 4.62213L9.70961 2.66122C9.41113 2.49841 9.05038 2.49841 8.75191 2.66122L5.1569 4.62213C4.46204 5.00114 4.46204 5.9989 5.1569 6.37792L8.75191 8.33883C9.05038 8.50164 9.41113 8.50164 9.70961 8.33883L13.3046 6.37792ZM12.8753 11.6174C13.1971 11.4423 13.3974 11.1053 13.3974 10.739V9.91037C13.3974 9.15113 12.5846 8.66883 11.9182 9.03268L9.70998 10.2384C9.41131 10.4014 9.05021 10.4014 8.75154 10.2384L6.54331 9.03268C5.87693 8.66883 5.06409 9.15113 5.06409 9.91037V10.739C5.06409 11.1053 5.26441 11.4423 5.58622 11.6174L8.75289 13.3401C9.05085 13.5022 9.41066 13.5022 9.70862 13.3401L12.8753 11.6174Z" fill="url(#paint1_linear_9_20)"/>
<defs>
<linearGradient id="paint0_linear_9_20" x1="18.2861" y1="14.7649" x2="-0.424269" y2="-0.220995" gradientUnits="userSpaceOnUse">
<stop stop-color="#E73E96"/>
<stop offset="1" stop-color="#EF3B3B"/>
</linearGradient>
<linearGradient id="paint1_linear_9_20" x1="18.3106" y1="14.6394" x2="0.13254" y2="0.685782" gradientUnits="userSpaceOnUse">
<stop stop-color="#E73E96"/>
<stop offset="1" stop-color="#EF3B3B"/>
</linearGradient>
</defs>
</svg>
