<svg width="20" height="20" viewBox="0 0 20 20" fill="none" xmlns="http://www.w3.org/2000/svg">
<path d="M4.79999 7.225C4.79999 6.87982 5.07981 6.6 5.42499 6.6H7.29999C7.64517 6.6 7.92499 6.87982 7.92499 7.225C7.92499 7.57018 7.64517 7.85 7.29999 7.85H5.42499C5.07981 7.85 4.79999 7.57018 4.79999 7.225ZM4.79999 9.725C4.79999 9.37982 5.07981 9.1 5.42499 9.1H7.29999C7.64517 9.1 7.92499 9.37982 7.92499 9.725C7.92499 10.0702 7.64517 10.35 7.29999 10.35H5.42499C5.07981 10.35 4.79999 10.0702 4.79999 9.725ZM4.79999 12.225C4.79999 11.8798 5.07981 11.6 5.42499 11.6H7.29999C7.64517 11.6 7.92499 11.8798 7.92499 12.225C7.92499 12.5702 7.64517 12.85 7.29999 12.85H5.42499C5.07981 12.85 4.79999 12.5702 4.79999 12.225ZM12.5 7.225C12.5 6.87982 12.7798 6.6 13.125 6.6H15C15.3452 6.6 15.625 6.87982 15.625 7.225C15.625 7.57018 15.3452 7.85 15 7.85H13.125C12.7798 7.85 12.5 7.57018 12.5 7.225ZM12.5 9.725C12.5 9.37982 12.7798 9.1 13.125 9.1H15C15.3452 9.1 15.625 9.37982 15.625 9.725C15.625 10.0702 15.3452 10.35 15 10.35H13.125C12.7798 10.35 12.5 10.0702 12.5 9.725ZM12.5 12.225C12.5 11.8798 12.7798 11.6 13.125 11.6H15C15.3452 11.6 15.625 11.8798 15.625 12.225C15.625 12.5702 15.3452 12.85 15 12.85H13.125C12.7798 12.85 12.5 12.5702 12.5 12.225Z" fill="#E63E93"/>
<path d="M17.5 2.5H2.5C2.16858 2.50033 1.85083 2.63213 1.61648 2.86648C1.38213 3.10083 1.25033 3.41858 1.25 3.75V17.5C1.25033 17.8314 1.38213 18.1492 1.61648 18.3835C1.85083 18.6179 2.16858 18.7497 2.5 18.75H17.5C17.8314 18.7497 18.1492 18.6179 18.3835 18.3835C18.6179 18.1492 18.7497 17.8314 18.75 17.5V3.75C18.7497 3.41858 18.6179 3.10083 18.3835 2.86648C18.1492 2.63213 17.8314 2.50033 17.5 2.5ZM3.3 5.4C3.3 4.84772 3.74772 4.4 4.3 4.4H8.2C8.75228 4.4 9.2 4.84772 9.2 5.4V15.8C9.2 16.3523 8.75229 16.8 8.2 16.8H4.3C3.74772 16.8 3.3 16.3523 3.3 15.8V5.4ZM12.25 16.8C11.6977 16.8 11.25 16.3523 11.25 15.8V5.4C11.25 4.84772 11.6977 4.4 12.25 4.4H15.7C16.2523 4.4 16.7 4.84772 16.7 5.4V15.8C16.7 16.3523 16.2523 16.8 15.7 16.8H12.25Z" fill="url(#paint0_linear_9_38)"/>
<defs>
<linearGradient id="paint0_linear_9_38" x1="18.3706" y1="17.6667" x2="-0.469257" y2="4.29431" gradientUnits="userSpaceOnUse">
<stop stop-color="#E73E96"/>
<stop offset="1" stop-color="#EF3B3B"/>
</linearGradient>
</defs>
</svg>
