<svg width="20" height="20" viewBox="0 0 20 20" fill="none" xmlns="http://www.w3.org/2000/svg">
<path fill-rule="evenodd" clip-rule="evenodd" d="M3.33335 2.18333C3.96848 2.18333 4.48335 2.69821 4.48335 3.33333V16.6667C4.48335 17.3018 3.96848 17.8167 3.33335 17.8167C2.69822 17.8167 2.18335 17.3018 2.18335 16.6667V3.33333C2.18335 2.69821 2.69822 2.18333 3.33335 2.18333ZM13.0174 3.89425C13.6281 3.71977 14.2646 4.07338 14.4391 4.68407L17.7724 16.3507C17.9469 16.9614 17.5933 17.5979 16.9826 17.7724C16.3719 17.9469 15.7354 17.5933 15.5609 16.9826L12.2276 5.31593C12.0531 4.70524 12.4067 4.06873 13.0174 3.89425ZM10 3.85C10.6351 3.85 11.15 4.36487 11.15 5V16.6667C11.15 17.3018 10.6351 17.8167 10 17.8167C9.36489 17.8167 8.85002 17.3018 8.85002 16.6667V5C8.85002 4.36487 9.36489 3.85 10 3.85ZM6.66668 5.51667C7.30181 5.51667 7.81668 6.03154 7.81668 6.66667V16.6667C7.81668 17.3018 7.30181 17.8167 6.66668 17.8167C6.03156 17.8167 5.51668 17.3018 5.51668 16.6667V6.66667C5.51668 6.03154 6.03156 5.51667 6.66668 5.51667Z" fill="url(#paint0_linear_9_42)"/>
<defs>
<linearGradient id="paint0_linear_9_42" x1="17.4781" y1="16.7747" x2="-0.166872" y2="5.14511" gradientUnits="userSpaceOnUse">
<stop stop-color="#E73E96"/>
<stop offset="1" stop-color="#EF3B3B"/>
</linearGradient>
</defs>
</svg>
