<svg width="19" height="21" viewBox="0 0 19 21" fill="none" xmlns="http://www.w3.org/2000/svg">
<path fill-rule="evenodd" clip-rule="evenodd" d="M9.0752 1.68585C9.34265 1.53805 9.65745 1.53805 9.9249 1.68585L17.0499 5.62335C17.3717 5.80121 17.575 6.16479 17.575 6.5625C17.575 6.96021 17.3717 7.32379 17.0499 7.50165L14.791 8.75L17.0499 9.99835C17.3717 10.1762 17.575 10.5398 17.575 10.9375C17.575 11.3352 17.3717 11.6988 17.0499 11.8766L14.791 13.125L17.0499 14.3734C17.3717 14.5512 17.575 14.9148 17.575 15.3125C17.575 15.7102 17.3717 16.0738 17.0499 16.2516L9.9249 20.1891C9.65745 20.337 9.34265 20.337 9.0752 20.1891L1.9502 16.2516C1.62835 16.0738 1.42505 15.7102 1.42505 15.3125C1.42505 14.9148 1.62835 14.5512 1.9502 14.3734L4.20912 13.125L1.9502 11.8766C1.62835 11.6988 1.42505 11.3352 1.42505 10.9375C1.42505 10.5398 1.62835 10.1762 1.9502 9.99835L4.20912 8.75L1.9502 7.50165C1.62835 7.32379 1.42505 6.96021 1.42505 6.5625C1.42505 6.16479 1.62835 5.80121 1.9502 5.62335L9.0752 1.68585ZM6.33338 9.92394L4.49931 10.9375L9.50005 13.7011L14.5008 10.9375L12.6667 9.92394L9.9249 11.4391C9.65745 11.587 9.34265 11.587 9.0752 11.4391L6.33338 9.92394ZM6.33338 14.2989L4.49931 15.3125L9.50005 18.0761L14.5008 15.3125L12.6667 14.2989L9.9249 15.8141C9.65745 15.962 9.34265 15.962 9.0752 15.8141L6.33338 14.2989ZM4.49931 6.5625L9.50005 9.32607L14.5008 6.5625L9.50005 3.79894L4.49931 6.5625Z" fill="url(#paint0_linear_9_58)"/>
<defs>
<linearGradient id="paint0_linear_9_58" x1="-3.32495" y1="3.15" x2="21.8418" y2="14.7582" gradientUnits="userSpaceOnUse">
<stop stop-color="#EF3B3B"/>
<stop offset="1" stop-color="#E73E96"/>
</linearGradient>
</defs>
</svg>
