<svg width="40" height="40" viewBox="0 0 40 40" fill="none" xmlns="http://www.w3.org/2000/svg">
<path d="M21.1833 29.5167L29.5167 21.1833C29.6684 21.0248 29.7874 20.8379 29.8667 20.6333C30.0334 20.2276 30.0334 19.7724 29.8667 19.3667C29.7874 19.1621 29.6684 18.9752 29.5167 18.8167L21.1833 10.4833C21.0279 10.3279 20.8435 10.2047 20.6404 10.1206C20.4374 10.0365 20.2198 9.99319 20 9.99319C19.5562 9.99319 19.1305 10.1695 18.8167 10.4833C18.5028 10.7972 18.3265 11.2228 18.3265 11.6667C18.3265 12.1105 18.5028 12.5362 18.8167 12.85L24.3167 18.3333L11.6667 18.3333C11.2246 18.3333 10.8007 18.5089 10.4882 18.8215C10.1756 19.1341 10 19.558 10 20C10 20.442 10.1756 20.866 10.4882 21.1785C10.8007 21.4911 11.2246 21.6667 11.6667 21.6667L24.3167 21.6667L18.8167 27.15C18.6605 27.305 18.5365 27.4893 18.4519 27.6924C18.3672 27.8955 18.3237 28.1133 18.3237 28.3333C18.3237 28.5534 18.3672 28.7712 18.4519 28.9743C18.5365 29.1774 18.6605 29.3617 18.8167 29.5167C18.9716 29.6729 19.1559 29.7969 19.359 29.8815C19.5621 29.9661 19.78 30.0097 20 30.0097C20.22 30.0097 20.4379 29.9661 20.641 29.8815C20.8441 29.7969 21.0284 29.6729 21.1833 29.5167Z" fill="#00A65D"/>
</svg>
