<svg width="17" height="14" viewBox="0 0 17 14" fill="none" xmlns="http://www.w3.org/2000/svg">
<path d="M14.45 0H2.55C1.8737 0 1.2251 0.26866 0.746878 0.746878C0.26866 1.2251 0 1.8737 0 2.55V11.05C0 11.7263 0.26866 12.3749 0.746878 12.8531C1.2251 13.3313 1.8737 13.6 2.55 13.6H14.45C15.1263 13.6 15.7749 13.3313 16.2531 12.8531C16.7313 12.3749 17 11.7263 17 11.05V2.55C17 1.8737 16.7313 1.2251 16.2531 0.746878C15.7749 0.26866 15.1263 0 14.45 0ZM13.8805 1.7L8.5 5.7375L3.1195 1.7H13.8805ZM14.45 11.9H2.55C2.32457 11.9 2.10837 11.8104 1.94896 11.651C1.78955 11.4916 1.7 11.2754 1.7 11.05V2.7625L7.99 7.48C8.13713 7.59035 8.31608 7.65 8.5 7.65C8.68392 7.65 8.86287 7.59035 9.01 7.48L15.3 2.7625V11.05C15.3 11.2754 15.2104 11.4916 15.051 11.651C14.8916 11.8104 14.6754 11.9 14.45 11.9Z" fill="url(#paint0_linear_9_63)"/>
<path fill-rule="evenodd" clip-rule="evenodd" d="M0.79667 0.814285C1.30677 0.292907 1.99861 0 2.72 0H14.28C15.0014 0 15.6932 0.292907 16.2033 0.814285C16.7134 1.33566 17 2.0428 17 2.78014V11.2199C17 11.9572 16.7134 12.6643 16.2033 13.1857C15.6932 13.7071 15.0014 14 14.28 14H2.72C1.99861 14 1.30677 13.7071 0.79667 13.1857C0.286571 12.6643 0 11.9572 0 11.2199V2.78014C0 2.0428 0.286571 1.33566 0.79667 0.814285ZM2.72 0.496454C2.12743 0.496454 1.55913 0.737056 1.14012 1.16533C0.721112 1.59361 0.485714 2.17447 0.485714 2.78014V11.2199C0.485714 11.8255 0.721112 12.4064 1.14012 12.8347C1.55913 13.2629 2.12743 13.5035 2.72 13.5035H14.28C14.8726 13.5035 15.4409 13.2629 15.8599 12.8347C16.2789 12.4064 16.5143 11.8255 16.5143 11.2199V2.78014C16.5143 2.17447 16.2789 1.59361 15.8599 1.16533C15.4409 0.737056 14.8726 0.496454 14.28 0.496454H2.72ZM3.04284 1.85764C3.07591 1.7563 3.16871 1.68794 3.27323 1.68794H13.7268C13.8313 1.68794 13.9241 1.7563 13.9572 1.85764C13.9902 1.95899 13.9561 2.07059 13.8725 2.13471L8.64576 6.14358C8.55939 6.20982 8.44061 6.20982 8.35424 6.14358L3.12747 2.13471C3.04386 2.07059 3.00978 1.95899 3.04284 1.85764ZM4.00149 2.1844L8.5 5.63469L12.9985 2.1844H4.00149ZM1.78568 2.76911C1.86795 2.72707 1.96641 2.73614 2.04 2.79255L8.15029 7.4766C8.25118 7.55394 8.37389 7.59574 8.5 7.59574C8.62611 7.59574 8.74883 7.55394 8.84972 7.4766L14.96 2.79255C15.0336 2.73614 15.132 2.72707 15.2143 2.76911C15.2966 2.81116 15.3486 2.89711 15.3486 2.99113V11.2199C15.3486 11.5095 15.236 11.7873 15.0356 11.9922C14.8352 12.197 14.5634 12.3121 14.28 12.3121H2.72C2.4366 12.3121 2.1648 12.197 1.96441 11.9922C1.76401 11.7873 1.65143 11.5095 1.65143 11.2199V2.99113C1.65143 2.89711 1.7034 2.81116 1.78568 2.76911ZM2.13714 3.48759V11.2199C2.13714 11.3779 2.19855 11.5294 2.30786 11.6411C2.41716 11.7528 2.56542 11.8156 2.72 11.8156H14.28C14.4346 11.8156 14.5828 11.7528 14.6921 11.6411C14.8014 11.5294 14.8629 11.3779 14.8629 11.2199V3.48759L9.14114 7.87376C8.95618 8.01555 8.73121 8.0922 8.5 8.0922C8.26879 8.0922 8.04382 8.01555 7.85886 7.87376L2.13714 3.48759Z" fill="url(#paint1_linear_9_63)"/>
<defs>
<linearGradient id="paint0_linear_9_63" x1="-5" y1="1.17757" x2="17.5977" y2="15.8524" gradientUnits="userSpaceOnUse">
<stop stop-color="#EF3B3B"/>
<stop offset="1" stop-color="#E73E96"/>
</linearGradient>
<linearGradient id="paint1_linear_9_63" x1="-5" y1="1.17757" x2="17.5977" y2="15.8524" gradientUnits="userSpaceOnUse">
<stop stop-color="#EF3B3B"/>
<stop offset="1" stop-color="#E73E96"/>
</linearGradient>
</defs>
</svg>
