<svg width="75" height="75" viewBox="0 0 75 75" fill="none" xmlns="http://www.w3.org/2000/svg">
<path fill-rule="evenodd" clip-rule="evenodd" d="M37.5682 74.9999C58.2475 74.9631 75 58.1879 75 37.5C75 16.7893 58.2107 0 37.5 0C16.7933 0 0.00638714 16.7829 1.82222e-06 37.4882C6.07436e-07 37.4921 0 37.4961 0 37.5C0 37.5076 2.25162e-06 37.5152 6.75424e-06 37.5228C0.0122816 58.1964 16.7538 74.9569 37.4202 74.9999C37.4695 75 37.5189 75 37.5682 74.9999ZM59.3725 63.4932C53.4629 68.4711 45.8317 71.4706 37.5 71.4706C29.1449 71.4706 21.4943 68.4543 15.5777 63.4512C17.7901 59.7672 20.8988 56.6982 24.6184 54.5326C28.5181 52.2622 32.95 51.066 37.4626 51.066C41.9751 51.066 46.407 52.2622 50.3068 54.5326C54.0404 56.7064 57.1586 59.7905 59.3725 63.4932ZM61.6255 61.4157C57.8786 55.4305 52.03 51.0502 45.2167 49.1433C48.4706 47.4128 51.0524 44.6438 52.5512 41.2769C54.05 37.91 54.3798 34.1385 53.488 30.5625C52.5963 26.9866 50.5342 23.8116 47.63 21.5426C44.7258 19.2737 41.1462 18.0412 37.4607 18.0412C33.7752 18.0412 30.1956 19.2737 27.2914 21.5426C24.3871 23.8116 22.3251 26.9866 21.4334 30.5625C20.5416 34.1385 20.8714 37.91 22.3702 41.2769C23.869 44.6438 26.4507 47.4128 29.7047 49.1433C22.9098 51.045 17.0745 55.4068 13.3264 61.3671C7.26878 55.2322 3.52941 46.8028 3.52941 37.5C3.52941 18.7386 18.7386 3.52941 37.5 3.52941C56.2614 3.52941 71.4706 18.7386 71.4706 37.5C71.4706 46.8274 67.7114 55.2768 61.6255 61.4157ZM44.9691 45.7882C42.7466 47.2733 40.1337 48.0659 37.4607 48.0659C33.8763 48.0659 30.4388 46.642 27.9042 44.1075C25.3697 41.5729 23.9458 38.1354 23.9458 34.551C23.9458 31.878 24.7385 29.2651 26.2235 27.0426C27.7085 24.8201 29.8193 23.0878 32.2888 22.0649C34.7583 21.042 37.4757 20.7744 40.0973 21.2959C42.7189 21.8173 45.127 23.1045 47.0171 24.9946C48.9072 26.8847 50.1944 29.2928 50.7159 31.9144C51.2373 34.536 50.9697 37.2534 49.9468 39.7229C48.9239 42.1925 47.1916 44.3032 44.9691 45.7882Z" fill="#808080"/>
</svg>
