<svg width="287" height="97" viewBox="0 0 287 97" fill="none" xmlns="http://www.w3.org/2000/svg">
<path d="M255.425 27.9143C259.873 34.3673 287 34.6814 287 34.6814V77C287 88.0457 278.046 97 267 97H20C8.95432 97 0 88.0457 0 77V74.3174C0 74.3174 19.4048 62.3422 31.5301 63.4416C41.3058 64.328 42.6722 73.3948 52.5202 73.5923C59.8746 73.7398 62.7223 69.238 70.012 68.517C81.1747 67.4128 87.0977 75.6548 97.9989 73.5923C114.563 70.4585 103.584 51.0926 118.989 45.678C126.468 43.0494 132.982 45.678 139.979 43.1403C167.966 32.9897 155.102 1.40266e-09 171.464 0C188.956 -1.49952e-09 182.902 34.0453 199.451 27.9143C204.613 26.0019 204.565 21.8629 209.946 20.3013C219.29 17.5903 224.774 30.7174 234.435 27.9143C239.817 26.3528 241.432 20.3012 244.93 20.3013C248.428 20.3015 251.927 22.8392 255.425 27.9143Z" fill="url(#paint0_linear_1_199)"/>
<path d="M286.398 35.6324C286.398 35.6324 260.587 35.0754 256.069 28.776C252.516 23.8217 250.326 21.3444 246.773 21.3443C243.22 21.3441 241.579 27.2517 236.113 28.776C226.301 31.5123 220.73 18.6978 211.24 21.3443C205.774 22.8686 205.824 26.9091 200.581 28.776C183.772 34.761 189.921 1.52631 172.154 1.52631C155.536 1.52631 168.601 33.7305 140.175 43.6395C133.068 46.1167 126.451 43.5508 118.855 46.1167C103.208 51.4024 114.36 70.3072 97.5357 73.3664C86.4633 75.3798 80.4473 67.334 69.1095 68.4119C61.7054 69.1158 58.813 73.5104 51.3432 73.3664C41.3406 73.1736 39.9527 64.3227 30.0235 63.4574C17.7079 62.3842 1.59734 73.3664 1.59734 73.3664" stroke="#017E47" stroke-linecap="round"/>
<defs>
<linearGradient id="paint0_linear_1_199" x1="141.728" y1="0" x2="141.728" y2="104.044" gradientUnits="userSpaceOnUse">
<stop stop-color="#00A65D" stop-opacity="0.76"/>
<stop offset="1" stop-color="#00A65D" stop-opacity="0"/>
</linearGradient>
</defs>
</svg>
